<svg width="42" height="37" viewBox="0 0 42 37" fill="none" xmlns="http://www.w3.org/2000/svg">
<path d="M4.66667 0C2.09271 0 0 2.07402 0 4.625V25.4375C0 27.9885 2.09271 30.0625 4.66667 30.0625H17.5L16.7198 32.375H11.6667C10.376 32.375 9.33333 33.4084 9.33333 34.6875C9.33333 35.9666 10.376 37 11.6667 37H30.3333C31.624 37 32.6667 35.9666 32.6667 34.6875C32.6667 33.4084 31.624 32.375 30.3333 32.375H25.2802L24.5 30.0625H37.3333C39.9073 30.0625 42 27.9885 42 25.4375V4.625C42 2.07402 39.9073 0 37.3333 0H4.66667ZM37.3333 4.625V20.8125H4.66667V4.625H37.3333Z" fill="#0A5857"/>
</svg>
